<svg width="69" height="54" viewBox="0 0 69 54" fill="none" xmlns="http://www.w3.org/2000/svg">
<rect width="69" height="54" rx="16" fill="#EBEBEC"/>
<path d="M24.4966 21.6H18.2966V24.8H21.1966V35H24.4966V21.6ZM35.6552 23.98V21.6H26.1352V24.8H31.2352L28.5952 27.7V29.6H31.5552C32.4152 29.6 32.8152 30.14 32.8152 30.68C32.8152 31.24 32.3752 31.8 31.5552 31.8H26.1352V35H31.9752C34.2752 35 36.1152 33.28 36.1152 30.78C36.1152 28.44 34.4352 27.28 32.8152 27.06L35.6552 23.98ZM40.4308 27.96C42.2908 27.96 43.7308 26.5 43.7308 24.62C43.7308 22.8 42.2908 21.3 40.4308 21.3C38.5308 21.3 37.0908 22.8 37.0908 24.62C37.0908 26.5 38.5308 27.96 40.4308 27.96ZM38.3908 35H40.7508L50.1508 21.6H47.7908L38.3908 35ZM40.4308 25.9C39.7308 25.9 39.1708 25.34 39.1708 24.62C39.1708 23.94 39.7308 23.36 40.4308 23.36C41.1308 23.36 41.7108 23.94 41.7108 24.62C41.7108 25.34 41.1308 25.9 40.4308 25.9ZM48.1508 35.3C50.0108 35.3 51.4508 33.84 51.4508 31.96C51.4508 30.14 50.0108 28.64 48.1508 28.64C46.2508 28.64 44.8108 30.14 44.8108 31.96C44.8108 33.84 46.2508 35.3 48.1508 35.3ZM48.1508 33.24C47.4508 33.24 46.8908 32.68 46.8908 31.96C46.8908 31.28 47.4508 30.7 48.1508 30.7C48.8508 30.7 49.4308 31.28 49.4308 31.96C49.4308 32.68 48.8508 33.24 48.1508 33.24Z" fill="#575757"/>
</svg>
